<!-- https://icons.getbootstrap.com/icons/emoji-sunglasses/ -->
<svg xmlns="http://www.w3.org/2000/svg" width="24" height="24" viewBox="0 0 24 24">
  <rect width="24" height="24" fill="#FFFFFF" />
  <polygon points="22,2 24,0 24,24 22,22" fill="#757575"/>
  <polygon points="2,22 0,24 24,24 22,22" fill="#757575"/>
  <rect x="2" y="2" width="20" height="20" fill="#B9B9B9"/>
  <circle cx="8" cy="8" r="8" stroke="black" stroke-width="1" fill="yellow" transform="translate(4, 4)" />
  <path d="M4.968 9.75a.5.5 0 1 0-.866.5A4.5 4.5 0 0 0 8 12.5a4.5 4.5 0 0 0 3.898-2.25.5.5 0 1 0-.866-.5A3.5 3.5 0 0 1 8 11.5a3.5 3.5 0 0 1-3.032-1.75M7 5.116V5a1 1 0 0 0-1-1H3.28a1 1 0 0 0-.97 1.243l.311 1.242A2 2 0 0 0 4.561 8H5a2 2 0 0 0 1.994-1.839A3 3 0 0 1 8 6c.393 0 .74.064 1.006.161A2 2 0 0 0 11 8h.438a2 2 0 0 0 1.94-1.515l.311-1.242A1 1 0 0 0 12.72 4H10a1 1 0 0 0-1 1v.116A4.2 4.2 0 0 0 8 5c-.35 0-.69.04-1 .116" transform="translate(4, 4)" fill="black" />
</svg>