<svg width="39" height="23" viewBox="0 0 39 23" xmlns="http://www.w3.org/2000/svg" shape-rendering="crispEdges">
  <style>
    :root {
      --count: 0;
    }

    #digit-units {
      --extracted-digit: mod(var(--count), 10);
    }

    #digit-tens {
      --extracted-digit: mod( calc( (var(--count) - mod(var(--count), 10)) / 10 ), 10);
    }

    #digit-hundreds {
      --extracted-digit: mod( calc( (var(--count) - mod(var(--count), 100)) / 100 ), 10);
    }

    .display-0 { --target-digit-value: 0; }
    .display-1 { --target-digit-value: 1; }
    .display-2 { --target-digit-value: 2; }
    .display-3 { --target-digit-value: 3; }
    .display-4 { --target-digit-value: 4; }
    .display-5 { --target-digit-value: 5; }
    .display-6 { --target-digit-value: 6; }
    .display-7 { --target-digit-value: 7; }
    .display-8 { --target-digit-value: 8; }
    .display-9 { --target-digit-value: 9; }

    .display {
      --_difference: calc(var(--extracted-digit) - var(--target-digit-value));
      --_pseudo-abs-difference: max(var(--_difference), calc(0 - var(--_difference)));
      --_is-non-zero: min(1, var(--_pseudo-abs-difference));
      --match-opacity: calc(1 - var(--_is-non-zero));
      opacity: var(--match-opacity);
    }

    .segment {
      fill: red;
    }

    .off {
      filter: brightness(0.25);
    }
  </style>
  <rect width="100%" height="100%" fill="black"/>
  <defs>
    <g id="trapezoid" class="segment">
      <rect x="1" y="0" width="9" height="1" />
      <rect x="2" y="1" width="7" height="1" />
      <rect x="3" y="2" width="5" height="1" />
    </g>
    <g id="middle" class="segment" >
      <rect x="2" y="-1" width="7" height="1" />
      <rect x="1" y="0" width="9" height="1" />
      <rect x="2" y="1" width="7" height="1" />
    </g>
    <g id="display-0">
      <use href="#trapezoid" x="0" y="0" class="seg-a" />
      <use href="#trapezoid" x="0" y="0" class="seg-b" transform="translate(11, 0) rotate(90)" />
      <use href="#trapezoid" x="0" y="0" class="seg-c" transform="translate(11, 10) rotate(90)" />
      <use href="#trapezoid" x="0" y="0" class="seg-d" transform="translate(11, 21) rotate(180)" />
      <use href="#trapezoid" x="0" y="0" class="seg-e" transform="translate(0, 21) rotate(270)" />
      <use href="#trapezoid" x="0" y="0" class="seg-f" transform="translate(0, 11) rotate(270)" />
      <use href="#middle" x="0" y="0" class="seg-g off" transform="translate(0, 10)" />
    </g>
    <g id="display-1">
      <use href="#trapezoid" x="0" y="0" class="seg-a off" />
      <use href="#trapezoid" x="0" y="0" class="seg-b" transform="translate(11, 0) rotate(90)" />
      <use href="#trapezoid" x="0" y="0" class="seg-c" transform="translate(11, 10) rotate(90)" />
      <use href="#trapezoid" x="0" y="0" class="seg-d off" transform="translate(11, 21) rotate(180)" />
      <use href="#trapezoid" x="0" y="0" class="seg-e off" transform="translate(0, 21) rotate(270)" />
      <use href="#trapezoid" x="0" y="0" class="seg-f off" transform="translate(0, 11) rotate(270)" />
      <use href="#middle" x="0" y="0" class="seg-g off" transform="translate(0, 10)" />
    </g>
    <g id="display-2">
      <use href="#trapezoid" x="0" y="0" class="seg-a" />
      <use href="#trapezoid" x="0" y="0" class="seg-b" transform="translate(11, 0) rotate(90)" />
      <use href="#trapezoid" x="0" y="0" class="seg-c off" transform="translate(11, 10) rotate(90)" />
      <use href="#trapezoid" x="0" y="0" class="seg-d" transform="translate(11, 21) rotate(180)" />
      <use href="#trapezoid" x="0" y="0" class="seg-e" transform="translate(0, 21) rotate(270)" />
      <use href="#trapezoid" x="0" y="0" class="seg-f off" transform="translate(0, 11) rotate(270)" />
      <use href="#middle" x="0" y="0" class="seg-g" transform="translate(0, 10)" />
    </g>
    <g id="display-3">
      <use href="#trapezoid" x="0" y="0" class="seg-a" />
      <use href="#trapezoid" x="0" y="0" class="seg-b" transform="translate(11, 0) rotate(90)" />
      <use href="#trapezoid" x="0" y="0" class="seg-c" transform="translate(11, 10) rotate(90)" />
      <use href="#trapezoid" x="0" y="0" class="seg-d" transform="translate(11, 21) rotate(180)" />
      <use href="#trapezoid" x="0" y="0" class="seg-e off" transform="translate(0, 21) rotate(270)" />
      <use href="#trapezoid" x="0" y="0" class="seg-f off" transform="translate(0, 11) rotate(270)" />
      <use href="#middle" x="0" y="0" class="seg-g" transform="translate(0, 10)" />
    </g>
    <g id="display-4">
      <use href="#trapezoid" x="0" y="0" class="seg-a off" />
      <use href="#trapezoid" x="0" y="0" class="seg-b" transform="translate(11, 0) rotate(90)" />
      <use href="#trapezoid" x="0" y="0" class="seg-c" transform="translate(11, 10) rotate(90)" />
      <use href="#trapezoid" x="0" y="0" class="seg-d off" transform="translate(11, 21) rotate(180)" />
      <use href="#trapezoid" x="0" y="0" class="seg-e off" transform="translate(0, 21) rotate(270)" />
      <use href="#trapezoid" x="0" y="0" class="seg-f" transform="translate(0, 11) rotate(270)" />
      <use href="#middle" x="0" y="0" class="seg-g" transform="translate(0, 10)" />
    </g>
    <g id="display-5">
      <use href="#trapezoid" x="0" y="0" class="seg-a" />
      <use href="#trapezoid" x="0" y="0" class="seg-b off" transform="translate(11, 0) rotate(90)" />
      <use href="#trapezoid" x="0" y="0" class="seg-c" transform="translate(11, 10) rotate(90)" />
      <use href="#trapezoid" x="0" y="0" class="seg-d" transform="translate(11, 21) rotate(180)" />
      <use href="#trapezoid" x="0" y="0" class="seg-e off" transform="translate(0, 21) rotate(270)" />
      <use href="#trapezoid" x="0" y="0" class="seg-f" transform="translate(0, 11) rotate(270)" />
      <use href="#middle" x="0" y="0" class="seg-g" transform="translate(0, 10)" />
    </g>
    <g id="display-6">
      <use href="#trapezoid" x="0" y="0" class="seg-a" />
      <use href="#trapezoid" x="0" y="0" class="seg-b off" transform="translate(11, 0) rotate(90)" />
      <use href="#trapezoid" x="0" y="0" class="seg-c" transform="translate(11, 10) rotate(90)" />
      <use href="#trapezoid" x="0" y="0" class="seg-d" transform="translate(11, 21) rotate(180)" />
      <use href="#trapezoid" x="0" y="0" class="seg-e" transform="translate(0, 21) rotate(270)" />
      <use href="#trapezoid" x="0" y="0" class="seg-f" transform="translate(0, 11) rotate(270)" />
      <use href="#middle" x="0" y="0" class="seg-g" transform="translate(0, 10)" />
    </g>
    <g id="display-7">
      <use href="#trapezoid" x="0" y="0" class="seg-a" />
      <use href="#trapezoid" x="0" y="0" class="seg-b" transform="translate(11, 0) rotate(90)" />
      <use href="#trapezoid" x="0" y="0" class="seg-c" transform="translate(11, 10) rotate(90)" />
      <use href="#trapezoid" x="0" y="0" class="seg-d off" transform="translate(11, 21) rotate(180)" />
      <use href="#trapezoid" x="0" y="0" class="seg-e off" transform="translate(0, 21) rotate(270)" />
      <use href="#trapezoid" x="0" y="0" class="seg-f off" transform="translate(0, 11) rotate(270)" />
      <use href="#middle" x="0" y="0" class="seg-g off" transform="translate(0, 10)" />
    </g>
    <g id="display-8">
      <use href="#trapezoid" x="0" y="0" class="seg-a" />
      <use href="#trapezoid" x="0" y="0" class="seg-b" transform="translate(11, 0) rotate(90)" />
      <use href="#trapezoid" x="0" y="0" class="seg-c" transform="translate(11, 10) rotate(90)" />
      <use href="#trapezoid" x="0" y="0" class="seg-d" transform="translate(11, 21) rotate(180)" />
      <use href="#trapezoid" x="0" y="0" class="seg-e" transform="translate(0, 21) rotate(270)" />
      <use href="#trapezoid" x="0" y="0" class="seg-f" transform="translate(0, 11) rotate(270)" />
      <use href="#middle" x="0" y="0" class="seg-g" transform="translate(0, 10)" />
    </g>
    <g id="display-9">
      <use href="#trapezoid" x="0" y="0" class="seg-a" />
      <use href="#trapezoid" x="0" y="0" class="seg-b" transform="translate(11, 0) rotate(90)" />
      <use href="#trapezoid" x="0" y="0" class="seg-c" transform="translate(11, 10) rotate(90)" />
      <use href="#trapezoid" x="0" y="0" class="seg-d" transform="translate(11, 21) rotate(180)" />
      <use href="#trapezoid" x="0" y="0" class="seg-e off" transform="translate(0, 21) rotate(270)" />
      <use href="#trapezoid" x="0" y="0" class="seg-f" transform="translate(0, 11) rotate(270)" />
      <use href="#middle" x="0" y="0" class="seg-g" transform="translate(0, 10)" />
    </g>
  </defs>
  <g id="digit-hundreds" transform="translate(1, 1)">
    <use class="display display-0" href="#display-0" />
    <use class="display display-1" href="#display-1" />
    <use class="display display-2" href="#display-2" />
    <use class="display display-3" href="#display-3" />
    <use class="display display-4" href="#display-4" />
    <use class="display display-5" href="#display-5" />
    <use class="display display-6" href="#display-6" />
    <use class="display display-7" href="#display-7" />
    <use class="display display-8" href="#display-8" />
    <use class="display display-9" href="#display-9" />
  </g>
  <g id="digit-tens" transform="translate(14, 1)">
    <use class="display display-0" href="#display-0" />
    <use class="display display-1" href="#display-1" />
    <use class="display display-2" href="#display-2" />
    <use class="display display-3" href="#display-3" />
    <use class="display display-4" href="#display-4" />
    <use class="display display-5" href="#display-5" />
    <use class="display display-6" href="#display-6" />
    <use class="display display-7" href="#display-7" />
    <use class="display display-8" href="#display-8" />
    <use class="display display-9" href="#display-9" />
  </g>
  <g id="digit-units" transform="translate(27, 1)">
    <use class="display display-0" href="#display-0" />
    <use class="display display-1" href="#display-1" />
    <use class="display display-2" href="#display-2" />
    <use class="display display-3" href="#display-3" />
    <use class="display display-4" href="#display-4" />
    <use class="display display-5" href="#display-5" />
    <use class="display display-6" href="#display-6" />
    <use class="display display-7" href="#display-7" />
    <use class="display display-8" href="#display-8" />
    <use class="display display-9" href="#display-9" />
  </g>
</svg>