<!-- https://icons.getbootstrap.com/icons/emoji-smile/ -->
<svg xmlns="http://www.w3.org/2000/svg" width="24" height="24" viewBox="0 0 24 24">
  <rect width="24" height="24" fill="#FFFFFF" />
  <polygon points="22,2 24,0 24,24 22,22" fill="#757575"/>
  <polygon points="2,22 0,24 24,24 22,22" fill="#757575"/>
  <rect x="2" y="2" width="20" height="20" fill="#B9B9B9"/>
  <circle cx="8" cy="8" r="8" stroke="black" stroke-width="1" fill="yellow" transform="translate(4, 4)" />
  <path d="M4.285 9.567a.5.5 0 0 1 .683.183A3.5 3.5 0 0 0 8 11.5a3.5 3.5 0 0 0 3.032-1.75.5.5 0 1 1 .866.5A4.5 4.5 0 0 1 8 12.5a4.5 4.5 0 0 1-3.898-2.25.5.5 0 0 1 .183-.683M7 6.5C7 7.328 6.552 8 6 8s-1-.672-1-1.5S5.448 5 6 5s1 .672 1 1.5m4 0c0 .828-.448 1.5-1 1.5s-1-.672-1-1.5S9.448 5 10 5s1 .672 1 1.5" transform="translate(4, 4)" fill="black" />
</svg>