<!-- https://icons.getbootstrap.com/icons/emoji-surprise/ -->
<svg xmlns="http://www.w3.org/2000/svg" width="24" height="24" viewBox="0 0 24 24">
  <style>
    :root {
      --time: 500ms;
    }

    #surprise {
      animation: hide var(--time) forwards;
    }

    #smile {
      visibility: hidden;
      animation: show var(--time) forwards;
      animation-delay: var(--time);
    }

    @keyframes hide {
      to {
        visibility: hidden;
      }
    }

    @keyframes show {
      to {
        visibility: visible;
      }
    }
  </style>
  <rect width="24" height="24" fill="#FFFFFF" />
  <polygon points="22,2 24,0 24,24 22,22" fill="#757575"/>
  <polygon points="2,22 0,24 24,24 22,22" fill="#757575"/>
  <rect x="2" y="2" width="20" height="20" fill="#B9B9B9"/>
  <g id="surprise" transform="translate(4, 4)">
    <circle cx="8" cy="8" r="8" stroke="black" stroke-width="1" fill="yellow" />
    <path d="M7 5.5C7 6.328 6.552 7 6 7s-1-.672-1-1.5S5.448 4 6 4s1 .672 1 1.5m4 0c0 .828-.448 1.5-1 1.5s-1-.672-1-1.5S9.448 4 10 4s1 .672 1 1.5" fill="black" />
    <circle cx="8" cy="11" r="2" fill="none" stroke="black" stroke-width="1" />
  </g>
  <g id="smile" transform="translate(4, 4)">
    <circle cx="8" cy="8" r="8" stroke="black" stroke-width="1" fill="yellow" />
    <path d="M4.285 9.567a.5.5 0 0 1 .683.183A3.5 3.5 0 0 0 8 11.5a3.5 3.5 0 0 0 3.032-1.75.5.5 0 1 1 .866.5A4.5 4.5 0 0 1 8 12.5a4.5 4.5 0 0 1-3.898-2.25.5.5 0 0 1 .183-.683M7 6.5C7 7.328 6.552 8 6 8s-1-.672-1-1.5S5.448 5 6 5s1 .672 1 1.5m4 0c0 .828-.448 1.5-1 1.5s-1-.672-1-1.5S9.448 5 10 5s1 .672 1 1.5" fill="black" />
  </g>
</svg>