<!-- https://icons.getbootstrap.com/icons/emoji-dizzy/ -->
<!-- https://icons.getbootstrap.com/icons/emoji-frown/ -->
<svg xmlns="http://www.w3.org/2000/svg" width="24" height="24" viewBox="0 0 24 24">
  <rect width="24" height="24" fill="#FFFFFF" />
  <polygon points="22,2 24,0 24,24 22,22" fill="#757575"/>
  <polygon points="2,22 0,24 24,24 22,22" fill="#757575"/>
  <rect x="2" y="2" width="20" height="20" fill="#B9B9B9"/>
  <circle cx="8" cy="8" r="8" stroke="black" stroke-width="1" fill="yellow" transform="translate(4, 4)" />
  <path d="M9.146 5.146a.5.5 0 0 1 .708 0l.646.647.646-.647a.5.5 0 0 1 .708.708l-.647.646.647.646a.5.5 0 0 1-.708.708l-.646-.647-.646.647a.5.5 0 1 1-.708-.708l.647-.646-.647-.646a.5.5 0 0 1 0-.708m-5 0a.5.5 0 0 1 .708 0l.646.647.646-.647a.5.5 0 1 1 .708.708l-.647.646.647.646a.5.5 0 1 1-.708.708L5.5 7.207l-.646.647a.5.5 0 1 1-.708-.708l.647-.646-.647-.646a.5.5 0 0 1 0-.708" transform="translate(4, 4)" fill="black" />
  <path d="M4.285 12.433a.5.5 0 0 0 .683-.183A3.5 3.5 0 0 1 8 10.5c1.295 0 2.426.703 3.032 1.75a.5.5 0 0 0 .866-.5A4.5 4.5 0 0 0 8 9.5a4.5 4.5 0 0 0-3.898 2.25.5.5 0 0 0 .183.683" transform="translate(4, 4)" fill="black" />
</svg>