<svg width="15" height="15" xmlns="http://www.w3.org/2000/svg" shape-rendering="crispEdges">
  <rect width="15" height="15" fill="#F00" />
  <rect x="3" y="3" width="9" height="9" fill="#000"/>
  <rect x="4" y="3" width="1" height="1" fill="#F00"/>
  <rect x="10" y="3" width="1" height="1" fill="#F00"/>
  <rect x="3" y="4" width="1" height="1" fill="#F00"/>
  <rect x="11" y="4" width="1" height="1" fill="#F00"/>
  <rect x="3" y="10" width="1" height="1" fill="#F00"/>
  <rect x="11" y="10" width="1" height="1" fill="#F00"/>
  <rect x="4" y="11" width="1" height="1" fill="#F00"/>
  <rect x="10" y="11" width="1" height="1" fill="#F00"/>
  <rect x="5" y="5" width="2" height="2" fill="#FFF"/>
  <rect x="7" y="1" width="1" height="2" fill="#000"/>
  <rect x="7" y="12" width="1" height="2" fill="#000"/>
  <rect x="1" y="7" width="2" height="1" fill="#000"/>
  <rect x="12" y="7" width="2" height="1" fill="#000"/>
</svg>